<?xml version="1.0" standalone="no"?>
<!DOCTYPE svg PUBLIC "-//W3C//DTD SVG 20010904//EN"
 "http://www.w3.org/TR/2001/REC-SVG-20010904/DTD/svg10.dtd">
<svg version="1.0" xmlns="http://www.w3.org/2000/svg"
 width="3634.000000pt" height="3634.000000pt" viewBox="0 0 3634.000000 3634.000000"
 preserveAspectRatio="xMidYMid meet">
<metadata>
Created by potrace 1.14, written by Peter Selinger 2001-2017
</metadata>
<g transform="translate(0.000000,3634.000000) scale(0.100000,-0.100000)"
fill="#000000" stroke="none">
<path d="M6680 29219 c0 -6859 -2 -7644 -15 -8565 -23 -1538 -28 -2002 -28
-2534 0 -471 5 -724 18 -905 2 -33 7 -109 10 -169 4 -60 8 -118 10 -127 2 -10
7 -58 10 -106 4 -48 8 -99 10 -113 2 -14 6 -50 10 -80 3 -30 10 -89 15 -130 5
-41 12 -97 15 -125 15 -122 30 -221 69 -455 3 -14 7 -42 10 -63 4 -21 13 -71
21 -110 8 -40 16 -83 19 -97 10 -58 48 -238 58 -275 6 -22 11 -49 13 -60 1
-11 7 -38 13 -60 10 -37 39 -157 47 -194 8 -38 120 -444 133 -481 3 -8 6 -19
7 -25 17 -73 198 -602 260 -760 200 -515 389 -928 608 -1334 137 -252 141
-260 201 -360 31 -52 56 -95 56 -97 0 -7 199 -322 272 -432 37 -56 68 -105 68
-108 0 -3 5 -10 11 -17 6 -7 41 -57 79 -112 38 -55 72 -104 77 -110 5 -5 19
-26 33 -45 28 -42 282 -383 290 -390 3 -3 41 -50 85 -105 72 -91 274 -334 300
-361 6 -6 35 -39 65 -74 30 -35 69 -77 85 -95 17 -18 73 -79 125 -135 195
-211 597 -603 786 -767 12 -10 48 -41 80 -70 964 -850 2239 -1616 3451 -2074
226 -85 667 -237 708 -245 6 -1 71 -20 145 -42 191 -58 523 -145 675 -178 210
-46 265 -58 425 -89 168 -32 575 -97 690 -110 30 -3 87 -10 125 -15 67 -9 93
-11 230 -25 119 -12 152 -14 255 -20 58 -4 116 -8 130 -10 150 -25 1167 -25
1485 0 28 2 91 6 141 10 49 3 101 7 115 10 13 2 64 6 113 10 50 4 97 8 105 10
9 2 48 6 86 9 39 4 81 9 95 11 14 2 48 6 75 10 28 3 77 10 110 15 33 5 80 11
105 14 25 3 127 19 225 36 183 31 201 34 245 44 14 3 42 8 64 11 21 3 41 7 45
9 3 2 22 7 41 10 29 4 142 28 200 41 8 2 58 13 110 25 120 27 402 100 540 140
58 17 114 33 125 35 23 5 86 25 315 100 781 253 1566 610 2293 1044 98 58 191
113 206 122 l27 16 -1 -549 0 -549 60 -97 c432 -700 1086 -1191 1825 -1371 91
-22 190 -43 220 -46 30 -4 57 -8 60 -10 32 -19 563 -27 755 -12 839 67 1532
372 2041 898 137 141 229 253 336 409 l66 95 6 3090 c11 5398 18 7031 33 7265
4 74 8 369 8 655 0 515 -6 697 -30 965 -2 30 -7 89 -10 130 -3 41 -10 107 -15
145 -5 39 -12 95 -15 125 -5 44 -33 258 -50 387 -2 12 -6 34 -9 50 -4 15 -8
44 -11 63 -7 56 -17 117 -35 205 -5 28 -12 64 -15 82 -32 199 -128 614 -229
993 -103 388 -314 1001 -457 1325 -4 11 -35 81 -67 155 -111 253 -307 657
-346 715 -12 17 -20 31 -18 32 6 7 -280 508 -407 712 -214 343 -553 828 -733
1046 -9 11 -58 72 -109 135 -366 452 -851 963 -1264 1331 -27 24 -65 58 -85
76 -19 17 -46 41 -60 52 -14 11 -34 29 -45 39 -58 54 -304 252 -580 468 -19
15 -150 110 -269 196 -85 61 -444 301 -551 368 -195 122 -353 214 -670 390
-68 38 -571 290 -579 290 -2 0 -46 20 -98 44 -475 224 -1136 463 -1723 624
-528 145 -1098 259 -1577 316 -207 25 -304 35 -378 41 -41 3 -86 8 -100 10
-14 2 -72 7 -130 10 -58 4 -122 8 -144 10 -211 20 -1063 27 -1351 12 -196 -10
-368 -21 -485 -32 -19 -2 -69 -6 -110 -10 -41 -4 -86 -8 -100 -10 -14 -2 -54
-6 -90 -10 -36 -4 -76 -8 -90 -10 -14 -2 -50 -7 -80 -10 -30 -3 -66 -8 -80
-10 -14 -2 -45 -7 -70 -10 -77 -11 -234 -35 -256 -39 -12 -2 -39 -7 -60 -10
-263 -39 -736 -143 -1099 -242 -261 -70 -667 -196 -760 -234 -11 -5 -49 -18
-85 -30 -36 -12 -92 -33 -125 -45 -33 -13 -118 -46 -190 -74 -165 -63 -313
-124 -393 -162 -35 -16 -65 -29 -68 -29 -19 0 -608 -285 -769 -372 -89 -49
-332 -184 -355 -198 -132 -80 -182 -110 -186 -110 -3 0 -25 -14 -50 -30 l-44
-31 -1 2088 c0 1148 -2 2108 -4 2133 -5 85 -22 259 -30 300 -2 14 -6 41 -9 60
-5 33 -43 223 -49 245 -2 6 -7 26 -11 45 -10 48 -73 254 -96 315 -74 201 -109
282 -201 461 -206 402 -481 775 -838 1137 -338 341 -648 588 -1121 892 -378
244 -912 501 -1358 656 -388 134 -840 242 -1147 274 -27 3 -66 7 -85 10 -19 3
-113 8 -207 12 l-173 6 0 -7124z m11860 -5183 c63 -4 131 -9 150 -11 19 -2 69
-7 110 -10 205 -17 569 -79 825 -140 240 -58 636 -180 760 -235 11 -5 83 -34
160 -66 1181 -481 2234 -1387 2907 -2499 180 -298 353 -647 467 -945 18 -47
41 -105 51 -130 82 -207 199 -628 255 -920 34 -177 38 -200 60 -355 3 -22 7
-53 10 -70 2 -16 7 -59 10 -95 4 -36 8 -78 10 -95 5 -40 15 -170 20 -270 6
-108 6 -524 1 -555 -3 -14 -7 -79 -10 -145 -4 -66 -8 -142 -11 -170 -2 -27 -7
-81 -10 -120 -6 -73 -11 -117 -20 -175 -3 -19 -8 -53 -10 -75 -3 -22 -10 -62
-15 -90 -5 -27 -12 -68 -15 -90 -7 -48 -91 -426 -106 -475 -5 -19 -19 -66 -29
-105 -34 -124 -145 -457 -185 -550 -7 -16 -34 -82 -60 -145 -161 -389 -406
-828 -664 -1190 -65 -92 -236 -316 -251 -330 -3 -3 -27 -32 -54 -65 -28 -33
-57 -67 -65 -76 -9 -8 -41 -44 -71 -79 -60 -70 -308 -320 -410 -415 -149 -138
-377 -324 -545 -446 -154 -112 -382 -261 -520 -340 -278 -158 -521 -279 -755
-374 -36 -14 -74 -30 -85 -35 -32 -13 -101 -39 -232 -86 -340 -120 -793 -231
-1143 -279 -25 -3 -56 -8 -70 -10 -42 -6 -161 -19 -275 -30 -266 -26 -882 -26
-1085 -1 -14 2 -61 7 -105 11 -44 4 -89 9 -100 11 -11 1 -40 5 -65 8 -61 7
-115 15 -175 26 -27 5 -66 11 -85 14 -32 5 -182 34 -285 56 -32 7 -128 30
-225 55 -419 105 -964 323 -1367 546 -56 31 -108 59 -115 63 -7 3 -29 16 -48
28 -19 11 -44 26 -55 33 -149 85 -449 291 -626 430 -274 214 -565 485 -779
724 -41 46 -80 89 -86 95 -8 9 -122 148 -222 271 -49 60 -196 268 -277 390
-196 297 -421 723 -545 1030 -17 44 -36 89 -41 100 -73 166 -221 647 -274 895
-2 8 -8 35 -13 60 -6 25 -14 65 -17 90 -4 24 -8 47 -10 50 -2 3 -11 50 -20
105 -9 55 -18 111 -21 125 -7 43 -33 262 -39 330 -3 36 -8 82 -10 102 -27 234
-21 855 9 1083 3 17 7 57 11 90 4 33 8 71 10 84 3 13 7 45 10 70 4 25 10 69
15 96 5 28 11 66 14 85 5 33 43 233 52 275 3 11 7 31 10 44 37 178 142 537
216 736 46 125 119 305 144 359 13 28 24 54 24 58 0 11 172 358 225 453 494
893 1181 1640 2025 2202 564 375 1195 657 1840 823 308 79 647 139 925 165 39
4 84 8 100 10 17 2 95 7 175 11 80 3 146 7 147 8 6 5 449 -2 553 -8z"/>
<path d="M25209 35326 c-2 -2 -35 -7 -73 -10 -38 -3 -78 -8 -90 -11 -11 -2
-39 -7 -61 -10 -78 -10 -112 -17 -260 -55 -299 -77 -570 -196 -820 -360 -526
-345 -917 -839 -1123 -1420 -34 -94 -77 -237 -86 -285 -2 -5 -8 -37 -15 -70
-8 -33 -14 -64 -16 -70 -1 -5 -5 -32 -9 -60 -4 -27 -10 -61 -12 -75 -4 -28
-13 -110 -19 -180 -6 -68 -6 -326 0 -405 6 -86 21 -210 30 -251 3 -12 7 -39
10 -60 34 -224 183 -645 295 -834 211 -354 373 -554 627 -777 394 -345 935
-595 1428 -659 22 -3 51 -7 65 -10 106 -18 441 -24 595 -11 572 48 1101 266
1557 640 80 66 288 270 348 342 249 298 436 642 543 995 34 112 61 215 72 275
2 17 7 41 10 55 3 14 8 45 11 70 3 25 8 54 10 64 25 131 24 576 -1 731 -10 62
-15 91 -21 130 -12 81 -67 293 -106 410 -73 215 -208 487 -327 660 -38 55
-142 197 -151 205 -3 3 -29 33 -58 67 -166 195 -386 385 -607 528 -99 64 -338
190 -425 225 -30 12 -64 26 -75 31 -71 32 -359 118 -448 133 -15 3 -53 10 -85
15 -31 6 -79 13 -107 17 -27 3 -63 8 -80 11 -36 6 -521 14 -526 9z"/>
<path d="M28825 2909 c-38 -10 -83 -21 -100 -24 -16 -3 -129 -30 -250 -59
-328 -80 -739 -178 -965 -232 -58 -14 -143 -34 -188 -45 -77 -19 -191 -26
-230 -15 -10 3 -39 7 -67 11 -126 16 -373 77 -895 221 -199 55 -240 65 -400
103 -167 40 -270 57 -270 46 0 -3 25 -60 55 -126 30 -66 55 -122 55 -124 0 -2
20 -45 44 -97 24 -51 58 -127 76 -168 192 -438 557 -1162 752 -1489 393 -662
703 -973 889 -890 55 25 192 164 285 289 134 180 383 574 509 805 21 39 57
104 80 145 77 137 305 580 305 593 0 4 12 26 27 50 14 23 26 44 26 47 0 3 16
41 37 85 20 44 49 107 65 140 111 241 254 623 268 718 7 44 0 45 -108 16z"/>
</g>
</svg>
